Patient4_TMGait_0pt4_01_right_23_GRF.mot
version=1
nRows=58
nColumns=19
inDegrees=no
endheader
time	F1x	F1y	F1z	M1x	M1y	M1z	F2x	F2y	F2z	M2x	M2y	M2z	EC1x	EC1y	EC1z	EC2x	EC2y	EC2z
29.56	-18.4189	763.4856	72.6283	-257.9491	-70.5573	774.2157	-5.8119	-6.4581	-0.17971	-1.5332	1.1887	-4.8822	-0.0592	0.0182	-0.0073	-0.0462	0.0165	0.9585
29.5731	-8.7323	753.8494	65.4877	-255.0729	-62.2646	765.4781	-4.0388	-4.0588	-0.19795	-0.91997	0.91476	-2.97	-0.0592	0.0182	-0.0073	-0.0462	0.0165	0.9585
29.5863	0.022479	745.6395	59.3096	-252.5858	-54.816	757.0768	-2.5407	-2.0434	-0.18821	-0.40861	0.66714	-1.362	-0.0592	0.0182	-0.0073	-0.0462	0.0165	0.9585
29.5994	7.3997	739.8304	54.4372	-250.8067	-48.6132	749.935	-1.3958	-0.52383	-0.16192	-0.023424	0.46528	-0.14982	-0.0592	0.0182	-0.0073	-0.0462	0.0165	0.9585
29.6126	13.339	736.9329	50.9359	-249.9222	-43.7646	744.7168	-0.60635	0.52572	-0.13276	0.24514	0.31994	0.69698	-0.0592	0.0182	-0.0073	-0.0462	0.0165	0.9585
29.6257	17.9808	737.0758	48.6399	-249.9979	-40.1461	741.7906	-0.11478	1.1839	-0.10964	0.41842	0.22918	1.2397	-0.0592	0.0182	-0.0073	-0.0462	0.0165	0.9585
29.6389	21.533	740.0369	47.3301	-250.9782	-37.5745	741.1822	0.13452	1.5346	-0.099311	0.51611	0.19203	1.537	-0.0592	0.0182	-0.0073	-0.0462	0.0165	0.9585
29.652	24.2452	745.331	46.7264	-252.7129	-35.7934	742.636	0.20821	1.6456	-0.10465	0.55038	0.20161	1.6257	-0.0592	0.0182	-0.0073	-0.0462	0.0165	0.9585
29.6651	26.3526	752.256	46.5897	-254.9686	-34.5701	745.6405	0.17281	1.5584	-0.12699	0.52434	0.2477	1.5261	-0.0592	0.0182	-0.0073	-0.0462	0.0165	0.9585
29.6783	28.0555	759.9326	46.7223	-257.4403	-33.7062	749.4656	0.066088	1.2712	-0.16147	0.42883	0.31889	1.218	-0.0592	0.0182	-0.0073	-0.0462	0.0165	0.9585
29.6914	29.5007	767.383	46.9833	-259.7825	-33.0554	753.2514	-0.062698	0.75932	-0.20896	0.24697	0.40348	0.6498	-0.0592	0.0182	-0.0073	-0.0462	0.0165	0.9585
29.7046	30.7796	773.6864	47.2928	-261.6608	-32.5323	756.1782	-0.17334	-0.00057003	-0.26024	-0.038996	0.48309	-0.21392	-0.0592	0.0182	-0.0073	-0.0462	0.0165	0.9585
29.7177	31.9242	778.1058	47.5988	-262.7996	-32.0897	757.6059	-0.23712	-1.059	-0.30501	-0.45211	0.53812	-1.4366	-0.0592	0.0182	-0.0073	-0.0462	0.0165	0.9585
29.7309	32.9215	780.1784	47.8834	-263.0142	-31.7188	757.158	-0.22289	-2.4272	-0.33116	-0.99781	0.54199	-3.0338	-0.0592	0.0182	-0.0073	-0.0462	0.0165	0.9585
29.744	33.7478	779.7781	48.1359	-262.2361	-31.4208	754.7835	-0.082343	-4.044	-0.32511	-1.6515	0.45913	-4.934	-0.0592	0.0182	-0.0073	-0.0462	0.0165	0.9585
29.7571	34.3622	777.0778	48.4182	-260.5018	-31.2671	750.7141	0.22206	-5.7473	-0.25922	-2.3444	0.24117	-6.933	-0.0592	0.0182	-0.0073	-0.0462	0.0165	0.9585
29.7703	34.7769	772.4952	48.8254	-257.9437	-31.3501	745.3723	0.72324	-7.177	-0.10293	-2.9287	-0.16045	-8.5864	-0.0592	0.0182	-0.0073	-0.0462	0.0165	0.9585
29.7834	35.0225	766.6378	49.4927	-254.7705	-31.786	739.3206	1.4597	-7.7211	0.17653	-3.1564	-0.79284	-9.1671	-0.0592	0.0182	-0.0073	-0.0462	0.0165	0.9585
29.7966	35.1901	760.1527	50.5279	-251.2189	-32.6478	733.1099	2.4109	-6.4893	0.60991	-2.6656	-1.682	-7.6171	-0.0592	0.0182	-0.0073	-0.0462	0.0165	0.9585
29.8097	35.3669	753.4872	51.9954	-247.4716	-33.963	727.0796	3.5097	-2.2948	1.2201	-0.97392	-2.8186	-2.5449	-0.0592	0.0182	-0.0073	-0.0462	0.0165	0.9585
29.8229	35.6217	746.7302	53.8386	-243.6028	-35.6542	721.1992	4.6018	6.3176	1.9942	2.5072	-4.114	7.7505	-0.0592	0.0182	-0.0073	-0.0462	0.0165	0.9585
29.836	35.9399	739.5673	55.8867	-239.5682	-37.56	715.0668	5.3925	20.8818	2.8718	8.4	-5.3661	25.0535	-0.0592	0.0182	-0.0073	-0.0462	0.0165	0.9585
29.8491	36.2327	731.3047	57.8841	-235.2031	-39.4645	707.9503	5.4114	42.6916	3.7115	17.2316	-6.2107	50.8461	-0.0592	0.0182	-0.0073	-0.0462	0.0165	0.9585
29.8623	36.3773	720.9311	59.5629	-230.2384	-41.151	698.8239	3.9981	72.2917	4.2511	29.2257	-6.078	85.704	-0.0592	0.0182	-0.0073	-0.0462	0.0165	0.9585
29.8754	36.2404	707.334	60.6776	-224.3672	-42.4239	686.5883	0.73998	109.0634	4.0786	44.1203	-4.3349	128.8367	-0.0592	0.0182	-0.0073	-0.0462	0.0165	0.9585
29.8886	35.7539	689.6277	61.0117	-217.3502	-43.0969	670.3582	-4.0615	150.8512	2.8682	61.0148	-0.73705	177.6582	-0.0592	0.0182	-0.0073	-0.0462	0.0165	0.9585
29.9017	34.9204	667.4237	60.4425	-209.1026	-43.0493	649.731	-9.698	193.6365	0.4321	78.2585	4.5957	227.4259	-0.0592	0.0182	-0.0073	-0.0462	0.0165	0.9585
29.9149	33.8576	641.07	58.9597	-199.7679	-42.2335	624.9922	-15.4026	232.5692	-3.1896	93.8844	11.2617	272.4876	-0.0592	0.0182	-0.0073	-0.0462	0.0165	0.9585
29.928	32.7443	611.637	56.7161	-189.7059	-40.7288	597.1237	-20.7522	264.3691	-7.6036	106.5778	18.6075	309.0972	-0.0592	0.0182	-0.0073	-0.0462	0.0165	0.9585
29.9411	31.7914	580.5378	53.9519	-179.3688	-38.6864	567.4468	-25.2868	288.5667	-12.193	116.173	25.762	336.7476	-0.0592	0.0182	-0.0073	-0.0462	0.0165	0.9585
29.9543	31.1429	548.9745	50.9229	-169.1245	-36.291	537.1032	-28.6791	306.5595	-16.3008	123.2737	31.8722	357.0717	-0.0592	0.0182	-0.0073	-0.0462	0.0165	0.9585
29.9674	30.8383	517.6686	47.7466	-159.1784	-33.642	506.8186	-30.7798	320.484	-19.4486	128.7829	36.3604	372.5221	-0.0592	0.0182	-0.0073	-0.0462	0.0165	0.9585
29.9806	30.8197	486.8734	44.4146	-149.5834	-30.7537	476.8883	-31.647	332.634	-21.4453	133.644	39.048	385.7312	-0.0592	0.0182	-0.0073	-0.0462	0.0165	0.9585
29.9937	30.9481	456.4644	40.8604	-140.2666	-27.6098	447.2435	-31.463	345.1016	-22.4414	138.6868	40.1829	399.0981	-0.0592	0.0182	-0.0073	-0.0462	0.0165	0.9585
30.0069	31.0058	425.9624	37.0486	-131.0356	-24.239	417.4661	-30.5124	359.6062	-22.8223	144.5664	40.3118	414.5999	-0.0592	0.0182	-0.0073	-0.0462	0.0165	0.9585
30.02	30.7241	394.6055	33.0252	-121.6014	-20.7581	386.8519	-29.1451	377.4312	-23.138	151.7402	40.1829	433.7277	-0.0592	0.0182	-0.0073	-0.0462	0.0165	0.9585
30.0331	29.8027	361.5345	28.8941	-111.6474	-17.3483	354.5894	-27.7549	399.4359	-23.9191	160.4936	40.5443	457.4679	-0.0592	0.0182	-0.0073	-0.0462	0.0165	0.9585
30.0463	27.9653	326.1132	24.8219	-100.9307	-14.2448	320.0759	-26.7831	426.2482	-25.642	171.024	42.0848	486.5341	-0.0592	0.0182	-0.0073	-0.0462	0.0165	0.9585
30.0594	24.989	288.2361	20.9629	-89.3879	-11.6613	283.2128	-26.5196	458.3406	-28.6456	183.4818	45.2873	521.4115	-0.0592	0.0182	-0.0073	-0.0462	0.0165	0.9585
30.0726	20.7919	248.5109	17.4494	-77.1948	-9.7527	244.5777	-27.0957	495.8679	-33.1295	197.907	50.4065	562.2105	-0.0592	0.0182	-0.0073	-0.0462	0.0165	0.9585
30.0857	15.5659	208.2257	14.3456	-64.7557	-8.5336	205.3885	-28.4687	538.3943	-39.0271	214.1379	57.3371	608.3564	-0.0592	0.0182	-0.0073	-0.0462	0.0165	0.9585
30.0989	9.7551	169.0585	11.6972	-52.6067	-7.9129	167.2409	-30.4462	584.7814	-45.9982	231.7633	65.6213	658.4805	-0.0592	0.0182	-0.0073	-0.0462	0.0165	0.9585
30.112	4.003	132.6484	9.4868	-41.2789	-7.6772	131.684	-32.7426	633.1986	-53.4529	250.1194	74.5042	710.4624	-0.0592	0.0182	-0.0073	-0.0462	0.0165	0.9585
30.1251	-1.0551	100.2173	7.6438	-31.1741	-7.5599	99.8919	-35.0627	681.1962	-60.7338	268.3085	83.1583	761.5387	-0.0592	0.0182	-0.0073	-0.0462	0.0165	0.9585
30.1383	-4.9155	72.4307	6.0621	-22.5156	-7.3024	72.526	-37.1632	725.9732	-67.2436	285.2837	90.8438	808.6264	-0.0592	0.0182	-0.0073	-0.0462	0.0165	0.9585
30.1514	-7.3082	49.487	4.6646	-15.3723	-6.7456	49.824	-38.8251	764.7465	-72.5673	299.9891	97.0253	848.7073	-0.0592	0.0182	-0.0073	-0.0462	0.0165	0.9585
30.1646	-8.1497	31.3103	3.3975	-9.7208	-5.8166	31.7602	-39.8936	795.1782	-76.4469	311.5279	101.3592	879.2985	-0.0592	0.0182	-0.0073	-0.0462	0.0165	0.9585
30.1777	-7.577	17.6387	2.2621	-5.477	-4.5616	18.1148	-40.2491	815.6523	-78.7815	319.2745	103.6869	898.7327	-0.0592	0.0182	-0.0073	-0.0462	0.0165	0.9585
30.1909	-6.1233	8.1136	1.3059	-2.5256	-3.1953	8.5626	-39.825	825.4507	-79.5757	322.9459	103.9928	906.3346	-0.0592	0.0182	-0.0073	-0.0462	0.0165	0.9585
30.204	-4.3963	2.159	0.58733	-0.6826	-1.9671	2.5551	-38.6115	824.8023	-78.9395	322.6248	102.4007	902.4545	-0.0592	0.0182	-0.0073	-0.0462	0.0165	0.9585
30.2171	-2.7675	-1.0299	0.10332	0.30354	-0.99301	-0.686	-36.634	814.9046	-77.0599	318.7714	99.1361	888.4594	-0.0592	0.0182	-0.0073	-0.0462	0.0165	0.9585
30.2303	-1.4197	-2.278	-0.18824	0.68728	-0.29497	-1.9719	-33.9536	797.8812	-74.2317	312.1981	94.5535	866.6864	-0.0592	0.0182	-0.0073	-0.0462	0.0165	0.9585
30.2434	-0.42522	-2.2962	-0.32642	0.68802	0.14203	-2.007	-30.6621	776.4575	-70.8153	303.9512	89.092	840.0696	-0.0592	0.0182	-0.0073	-0.0462	0.0165	0.9585
30.2566	0.24163	-1.6423	-0.3632	0.47586	0.37568	-1.3553	-26.9113	753.6127	-67.1864	295.1752	83.2217	811.7986	-0.0592	0.0182	-0.0073	-0.0462	0.0165	0.9585
30.2697	0.62044	-0.71232	-0.33728	0.17429	0.4595	-0.40613	-22.8461	732.2471	-63.6813	286.985	77.3705	784.9475	-0.0592	0.0182	-0.0073	-0.0462	0.0165	0.9585
30.2829	0.7953	0.24141	-0.28319	-0.13624	0.45204	0.57846	-18.6137	714.8603	-60.5827	280.3436	71.9003	762.1319	-0.0592	0.0182	-0.0073	-0.0462	0.0165	0.9585
30.296	0.82557	1.0691	-0.21655	-0.40655	0.38994	1.4399	-14.3514	703.264	-58.0933	275.9538	67.0767	745.2243	-0.0592	0.0182	-0.0073	-0.0462	0.0165	0.9585
30.3091	0.76895	1.676	-0.14793	-0.60629	0.30118	2.0708	-10.166	698.44	-56.3324	274.2003	63.0685	735.2207	-0.0592	0.0182	-0.0073	-0.0462	0.0165	0.9585
